<?xml version="1.0" standalone="no"?>
<!DOCTYPE svg PUBLIC "-//W3C//DTD SVG 20010904//EN"
 "http://www.w3.org/TR/2001/REC-SVG-20010904/DTD/svg10.dtd">
<svg version="1.0" xmlns="http://www.w3.org/2000/svg"
 width="1565.000000pt" height="1565.000000pt" viewBox="0 0 1565.000000 1565.000000"
 preserveAspectRatio="xMidYMid meet">
<metadata>
Created by potrace 1.11, written by Peter Selinger 2001-2013
</metadata>
<g transform="translate(0.000000,1565.000000) scale(0.100000,-0.100000)"
fill="#000000" stroke="none">
<path d="M2838 14025 c-2 -2 -98 -6 -213 -9 -116 -3 -250 -8 -300 -11 -49 -2
-146 -7 -215 -10 -69 -3 -161 -8 -205 -10 -44 -3 -116 -7 -160 -10 -168 -10
-252 -15 -300 -20 -27 -2 -90 -7 -140 -10 -49 -3 -106 -8 -125 -10 -19 -3 -66
-7 -105 -10 -38 -3 -88 -7 -110 -10 -22 -2 -67 -7 -100 -10 -111 -11 -437 -51
-495 -60 -14 -2 -45 -7 -70 -10 -25 -3 -52 -7 -60 -10 -8 -3 -33 -7 -55 -10
-43 -5 -139 -23 -168 -31 -16 -5 -17 -297 -15 -5992 l3 -5986 85 -12 c95 -13
177 -23 330 -39 30 -3 73 -8 95 -10 82 -9 132 -14 190 -20 33 -3 83 -7 110
-10 28 -2 77 -7 110 -9 33 -3 89 -8 125 -11 136 -11 486 -33 660 -40 396 -17
595 -20 1235 -20 638 0 810 3 1065 20 36 2 115 6 175 10 110 6 194 13 250 20
17 2 72 7 124 10 51 4 101 8 110 10 9 1 50 6 91 9 41 4 86 9 100 11 28 5 84
12 145 20 71 8 139 17 160 21 11 3 38 7 60 10 22 2 51 7 65 9 153 25 230 39
310 55 52 10 106 21 120 24 14 2 48 10 75 16 28 6 61 14 75 16 59 12 277 69
416 109 559 164 1027 388 1409 672 38 29 75 56 81 61 179 151 375 344 500 494
338 406 569 874 675 1363 7 33 14 65 15 70 1 6 7 42 14 80 6 39 13 81 15 95 3
14 8 54 11 90 3 36 10 94 14 130 8 69 5 463 -3 540 -3 25 -8 74 -12 110 -19
194 -85 476 -159 682 -282 779 -882 1386 -1726 1747 -131 57 -402 152 -467
166 -18 4 -33 11 -33 16 0 5 3 8 8 7 4 0 16 2 27 7 501 199 851 421 1176 744
302 301 501 619 640 1020 37 106 81 272 93 351 3 19 10 58 15 85 32 172 36
666 6 816 -3 13 -7 38 -9 54 -8 52 -17 98 -36 180 -168 731 -652 1351 -1360
1742 -30 17 -87 49 -126 71 -110 63 -327 166 -464 220 -106 43 -291 108 -325
116 -5 1 -41 12 -80 24 -109 33 -297 79 -436 106 -107 22 -177 34 -349 61 -14
2 -45 6 -70 10 -25 3 -61 7 -80 10 -69 9 -116 14 -178 20 -35 4 -71 8 -80 10
-9 1 -64 6 -122 10 -58 4 -123 9 -145 10 -22 2 -89 7 -150 10 -60 4 -139 9
-175 11 -78 6 -1557 14 -1562 9z m2327 -2969 c232 -14 495 -42 565 -61 8 -2
31 -7 50 -10 19 -3 62 -13 95 -22 33 -8 71 -17 84 -19 13 -3 31 -9 40 -13 9
-5 19 -10 23 -10 51 -9 208 -73 323 -131 254 -129 404 -244 540 -415 244 -306
324 -691 231 -1110 -9 -44 -50 -154 -82 -224 -52 -113 -139 -235 -244 -342
-162 -165 -308 -260 -565 -368 -30 -13 -30 -13 65 -46 323 -110 555 -262 747
-490 148 -176 267 -434 298 -650 3 -23 8 -52 11 -65 11 -54 10 -323 -2 -412
-17 -124 -19 -133 -44 -222 -70 -250 -203 -475 -397 -672 -112 -113 -151 -146
-272 -227 -154 -103 -415 -218 -621 -273 -75 -20 -312 -75 -339 -78 -20 -3
-58 -9 -86 -14 -27 -6 -75 -13 -105 -17 -30 -3 -82 -10 -115 -15 -33 -5 -94
-12 -135 -15 -41 -3 -91 -8 -110 -10 -249 -27 -1205 -27 -1515 0 -27 3 -77 7
-110 9 -91 7 -297 27 -325 31 -14 2 -52 7 -85 10 -33 4 -67 8 -75 11 -13 3
-15 332 -15 2883 l0 2879 45 6 c158 23 334 45 405 51 28 2 73 6 100 9 28 3 84
8 125 11 41 3 104 8 140 10 91 8 206 14 420 21 102 4 186 7 187 8 5 4 654 -3
748 -8z"/>
<path d="M10648 9070 c-11 -4 -13 -116 -13 -627 l0 -623 42 0 c24 0 43 3 44 8
0 4 1 285 2 624 l2 616 -32 4 c-17 2 -37 1 -45 -2z"/>
<path d="M11899 9070 c-1 -3 -2 -285 -3 -627 l-1 -623 42 0 c27 0 43 5 44 13
0 6 1 47 1 89 l-1 77 32 -37 c91 -105 191 -156 314 -161 123 -5 263 60 341
158 120 150 132 395 27 561 -104 165 -320 239 -496 170 -73 -29 -148 -89 -202
-164 -12 -17 -14 19 -14 258 0 152 -3 279 -6 283 -8 7 -77 10 -78 3z m541
-456 c141 -46 231 -185 232 -357 0 -87 -14 -145 -53 -214 -35 -62 -69 -92
-145 -129 -47 -23 -70 -27 -138 -28 -75 -1 -89 2 -149 33 -321 163 -256 646
95 710 52 9 98 5 158 -15z"/>
<path d="M15573 9062 c-3 -7 -6 -289 -7 -627 l-1 -615 43 0 42 0 0 628 0 627
-36 0 c-20 0 -39 -6 -41 -13z"/>
<path d="M9186 8972 c-3 -3 -6 -65 -6 -139 0 -120 -2 -133 -17 -134 -10 0 -39
-1 -64 -1 l-47 0 0 -39 -1 -39 65 0 64 0 0 -306 c0 -197 4 -321 12 -351 15
-62 78 -127 138 -143 54 -15 126 -19 160 -9 14 4 37 10 53 13 24 6 27 10 27
51 l0 44 -35 -15 c-54 -22 -144 -20 -192 4 -73 38 -76 54 -78 392 -1 162 0
301 3 308 3 9 43 12 152 12 161 0 162 0 152 57 -4 22 -8 23 -121 22 -64 0
-132 0 -151 0 l-36 1 1 136 0 137 -37 2 c-20 2 -39 0 -42 -3z"/>
<path d="M9960 8705 c-25 -7 -63 -20 -84 -29 -57 -25 -157 -130 -189 -198 -75
-162 -56 -383 47 -513 47 -61 75 -82 154 -121 154 -76 338 -53 477 60 67 55
68 57 38 88 l-26 27 -46 -37 c-25 -20 -48 -39 -51 -43 -20 -22 -124 -53 -187
-55 -181 -7 -328 115 -357 299 -6 36 -5 37 27 38 17 0 181 0 364 0 l332 0 -4
74 c-13 207 -132 370 -300 411 -51 12 -148 12 -195 -1z m227 -101 c87 -42 154
-143 169 -254 l7 -50 -317 0 -317 0 5 34 c17 107 96 225 177 267 89 45 188 46
276 3z"/>
<path d="M11219 8700 c-68 -21 -94 -34 -147 -78 -124 -99 -185 -300 -147 -478
73 -340 478 -458 743 -217 17 16 32 34 31 39 0 5 -13 19 -28 31 l-27 21 -35
-31 c-79 -74 -160 -105 -269 -103 -93 2 -167 33 -230 97 -43 44 -87 124 -96
176 -3 16 -7 36 -10 46 -6 20 -38 18 425 18 l304 0 -6 77 c-7 86 -9 100 -30
158 -72 199 -281 305 -478 244z m229 -90 c60 -26 112 -78 145 -145 23 -47 30
-68 41 -137 l5 -28 -313 0 c-172 0 -315 3 -318 6 -10 10 27 129 54 175 81 138
240 192 386 129z"/>
<path d="M14069 8709 c-154 -16 -256 -124 -243 -258 11 -111 69 -153 314 -231
109 -35 142 -50 173 -80 36 -33 40 -41 40 -88 0 -184 -278 -223 -494 -71 l-27
19 -26 -35 -26 -34 32 -24 c122 -89 332 -127 456 -82 107 39 171 122 173 226
3 111 -52 177 -191 228 -49 18 -125 40 -156 47 -7 1 -42 16 -79 34 -78 37
-108 76 -101 130 3 19 5 38 6 42 1 22 72 78 111 88 93 26 233 1 313 -55 11 -8
25 -15 32 -15 11 0 52 67 44 72 -105 66 -235 99 -351 87z"/>
<path d="M14895 8706 c-140 -33 -253 -144 -302 -296 -20 -63 -25 -203 -9 -270
19 -75 24 -87 67 -150 86 -128 200 -188 357 -188 123 0 216 37 322 127 l34 30
-29 31 -29 30 -30 -29 c-78 -73 -177 -111 -278 -106 -34 1 -70 5 -78 7 -129
37 -214 129 -246 268 -7 30 -11 56 -9 58 2 2 166 3 364 3 l361 0 0 52 c-1 110
-49 245 -113 318 -88 100 -245 147 -382 115z m215 -97 c87 -37 161 -144 179
-259 l8 -50 -318 0 -318 0 6 38 c8 54 55 152 92 194 89 101 225 131 351 77z"/>
<path d="M13150 8699 c-19 -5 -44 -10 -55 -13 -41 -9 -135 -48 -135 -56 0 -8
19 -57 26 -68 1 -2 17 3 36 11 122 56 262 70 363 36 75 -26 128 -79 150 -151
13 -43 21 -128 13 -128 -2 0 -39 7 -83 16 -78 15 -266 21 -315 9 -14 -3 -36
-8 -48 -11 -39 -8 -105 -42 -137 -72 -71 -63 -101 -157 -80 -249 23 -102 83
-162 203 -202 143 -49 308 -13 414 89 l48 46 0 -68 0 -68 43 0 43 0 -1 313
c-1 336 -4 355 -56 437 -32 52 -62 76 -134 109 -41 19 -70 24 -155 26 -58 2
-121 -1 -140 -6z m315 -434 c44 -9 82 -18 84 -20 6 -7 5 -79 -2 -131 -16 -113
-112 -200 -248 -224 -72 -13 -111 -11 -174 7 -67 21 -113 57 -136 107 -56 123
13 236 166 271 65 15 209 10 310 -10z"/>
</g>
</svg>
